<?xml version="1.0" standalone="no"?>
<!DOCTYPE svg PUBLIC "-//W3C//DTD SVG 20010904//EN"
 "http://www.w3.org/TR/2001/REC-SVG-20010904/DTD/svg10.dtd">
<svg version="1.0" xmlns="http://www.w3.org/2000/svg"
 width="94.000000pt" height="53.000000pt" viewBox="0 0 94.000000 53.000000"
 preserveAspectRatio="xMidYMid meet">

<g transform="translate(0.000000,53.000000) scale(0.100000,-0.100000)"
fill="#000000" stroke="none">
<path d="M80 410 c0 -5 -6 -9 -12 -7 -7 1 -13 -5 -13 -13 0 -25 40 -18 43 8 2
12 -1 22 -7 22 -6 0 -11 -4 -11 -10z"/>
<path d="M111 401 c0 -9 4 -25 9 -36 8 -17 9 -16 9 9 1 23 5 27 21 23 11 -3
20 -2 20 3 0 4 -13 10 -30 12 -23 3 -30 1 -29 -11z"/>
<path d="M45 200 c3 -5 11 -10 16 -10 6 0 7 5 4 10 -3 6 -11 10 -16 10 -6 0
-7 -4 -4 -10z"/>
<path d="M97 171 c26 -25 33 -26 33 -6 0 8 -4 15 -9 15 -5 0 -18 3 -28 6 -15
6 -14 3 4 -15z"/>
<path d="M136 155 c-3 -9 3 -19 14 -25 11 -6 20 -7 20 -3 0 4 7 -2 15 -13 12
-16 14 -16 15 -3 0 23 -26 44 -33 27 -4 -9 -6 -7 -6 4 -1 23 -18 31 -25 13z"/>
<path d="M219 128 c-6 -21 -5 -37 2 -32 5 3 20 -7 34 -22 14 -15 25 -21 25
-13 0 10 3 10 12 1 16 -16 31 -15 21 1 -4 6 -8 18 -10 26 -1 7 -7 19 -13 25
-9 8 -11 6 -5 -11 5 -19 3 -23 -16 -23 -18 0 -20 2 -9 15 11 13 11 18 0 28
-10 9 -11 9 -6 0 5 -8 1 -13 -9 -13 -9 0 -13 5 -10 10 3 6 1 10 -4 10 -6 0
-11 -1 -12 -2z"/>
<path d="M325 83 c18 -42 23 -49 30 -41 9 9 -6 58 -16 52 -5 -3 -9 2 -9 10 0
9 -5 16 -10 16 -6 0 -4 -16 5 -37z"/>
<path d="M358 113 c6 -2 13 -17 13 -31 1 -19 3 -21 6 -9 3 12 11 16 21 13 11
-4 8 2 -7 14 -13 11 -28 20 -35 19 -7 0 -7 -2 2 -6z"/>
</g>
</svg>
